<?xml version="1.0" encoding="UTF-8"?>
<svg width="21.59mm" height="6.922mm" version="1.1" viewBox="0 0 21.59 6.922" xmlns="http://www.w3.org/2000/svg">
<path d="m6.667 0.941v1.345h-0.305v-1.345h-0.699v1.345h-0.304v-1.651h0.304v0.291q3e-3 -0.06 0.027-0.113 0.024-0.054 0.065-0.093 0.041-0.04 0.096-0.062 0.054-0.023 0.116-0.023h0.393q0.06 0 0.114 0.023 0.054 0.021 0.096 0.062 0.041 0.038 0.066 0.093 0.026 0.052 0.027 0.113 3e-3 -0.06 0.026-0.113 0.024-0.054 0.065-0.093 0.041-0.04 0.096-0.062 0.054-0.023 0.116-0.023h0.393q0.063 0 0.119 0.024 0.055 0.023 0.096 0.065 0.041 0.04 0.065 0.096 0.024 0.055 0.024 0.119v1.347h-0.298v-1.345zm1.512 0.624q0-0.063 0.023-0.117 0.024-0.055 0.065-0.097 0.041-0.041 0.097-0.065 0.055-0.024 0.117-0.024h0.787v-0.321h-0.996v-0.305h0.996q0.063 0 0.119 0.024 0.055 0.023 0.096 0.065 0.041 0.04 0.065 0.096 0.024 0.055 0.024 0.119v1.346h-0.302v-0.279q-4e-3 0.057-0.031 0.108-0.026 0.051-0.068 0.089-0.04 0.037-0.093 0.058-0.052 0.021-0.111 0.021h-0.483q-0.062 0-0.117-0.023-0.055-0.024-0.097-0.065-0.04-0.041-0.065-0.097-0.023-0.055-0.023-0.119zm0.303 0.415h0.787v-0.415h-0.786zm3.063 0.306h-0.306v-1.345h-0.851v1.345h-0.304v-1.651h0.303v0.291q3e-3 -0.06 0.027-0.113 0.024-0.054 0.065-0.093 0.041-0.04 0.096-0.062 0.054-0.023 0.116-0.023h0.545q0.063 0 0.119 0.024 0.055 0.023 0.096 0.065 0.041 0.04 0.065 0.096 0.024 0.055 0.024 0.119zm0.508-1.651h0.303v1.346h0.851v-1.346h0.305v1.651h-0.304v-0.279q-4e-3 0.057-0.031 0.108-0.026 0.051-0.068 0.089-0.04 0.037-0.093 0.058-0.052 0.021-0.111 0.021h-0.547q-0.062 0-0.117-0.023-0.055-0.024-0.097-0.065-0.04-0.041-0.065-0.097-0.023-0.055-0.023-0.119zm1.969 0.93q0-0.063 0.023-0.117 0.024-0.055 0.065-0.097 0.041-0.041 0.097-0.065 0.055-0.024 0.117-0.024h0.787v-0.321h-0.996v-0.305h0.996q0.063 0 0.119 0.024 0.055 0.023 0.096 0.065 0.041 0.04 0.065 0.096 0.024 0.055 0.024 0.119v1.346h-0.302v-0.279q-4e-3 0.057-0.031 0.108-0.026 0.051-0.068 0.089-0.04 0.037-0.093 0.058-0.052 0.021-0.111 0.021h-0.483q-0.062 0-0.117-0.023-0.055-0.024-0.097-0.065-0.04-0.041-0.065-0.097-0.023-0.055-0.023-0.119zm0.303 0.415h0.787v-0.415h-0.786zm1.906-1.98v2.286h-0.304v-2.286z" fill="#fff"/>
<path d="m0.303 4.909v1.04h0.787v-0.279h0.305v0.279q0 0.063-0.024 0.119-0.023 0.055-0.065 0.097-0.04 0.04-0.096 0.065-0.055 0.023-0.119 0.023h-0.788q-0.062 0-0.117-0.023-0.056-0.023-0.098-0.063-0.04-0.042-0.065-0.098-0.023-0.056-0.023-0.119v-1.04q0-0.063 0.023-0.119 0.024-0.055 0.065-0.096t0.097-0.065q0.055-0.024 0.117-0.024h0.787q0.063 0 0.119 0.024 0.055 0.023 0.096 0.065 0.041 0.04 0.065 0.096 0.024 0.055 0.024 0.119v0.279h-0.302v-0.279zm3.029 1.04q0 0.063-0.024 0.119-0.023 0.055-0.065 0.097-0.04 0.04-0.096 0.065-0.054 0.023-0.117 0.023h-0.821q-0.062 0-0.117-0.023-0.055-0.024-0.097-0.065-0.04-0.041-0.065-0.097-0.023-0.055-0.023-0.119v-1.04q0-0.063 0.023-0.119 0.024-0.055 0.065-0.096t0.097-0.065q0.055-0.024 0.117-0.024h0.82q0.063 0 0.117 0.024 0.055 0.023 0.096 0.065 0.041 0.04 0.065 0.096 0.024 0.055 0.024 0.119zm-1.123-1.04v1.04h0.82v-1.04zm3.092 1.345h-0.305v-1.345h-0.851v1.345h-0.304v-1.651h0.303v0.291q3e-3 -0.06 0.027-0.113 0.024-0.054 0.065-0.093 0.041-0.04 0.096-0.062 0.054-0.023 0.116-0.023h0.545q0.063 0 0.119 0.024 0.055 0.023 0.096 0.065 0.041 0.04 0.065 0.096 0.024 0.055 0.024 0.119zm1.12-1.981v0.33h0.542v0.305h-0.541v1.345h-0.305v-1.344h-0.403v-0.305h0.403v-0.33q0-0.063 0.023-0.117 0.024-0.055 0.066-0.097 0.041-0.041 0.097-0.065 0.055-0.024 0.117-0.024h0.542v0.305zm1.277 0.33v1.651h-0.305v-1.651zm-0.32-0.635h0.336v0.317h-0.336zm0.844 0.941q0-0.063 0.023-0.119 0.024-0.055 0.065-0.096t0.097-0.065q0.055-0.024 0.117-0.024h0.547q0.06 0 0.114 0.023 0.054 0.021 0.094 0.062 0.041 0.038 0.066 0.093 0.026 0.052 0.027 0.113v-0.291h0.305v2.012q0 0.063-0.024 0.119-0.023 0.055-0.065 0.096-0.04 0.041-0.096 0.065-0.055 0.024-0.119 0.024h-0.964v-0.305h0.964v-0.424h-0.851q-0.062 0-0.117-0.023-0.055-0.024-0.097-0.065-0.04-0.041-0.065-0.097-0.023-0.055-0.023-0.119zm1.154 0.976v-0.976h-0.851v0.976zm0.813-1.282h0.303v1.345h0.851v-1.345h0.305v1.651h-0.305v-0.279q-4e-3 0.057-0.031 0.108-0.026 0.051-0.068 0.089-0.04 0.037-0.093 0.058-0.052 0.021-0.111 0.021h-0.547q-0.062 0-0.117-0.023-0.055-0.024-0.097-0.065-0.04-0.041-0.065-0.097-0.023-0.055-0.023-0.119zm2.272 0.305v1.345h-0.303v-1.651h0.303v0.291q3e-3 -0.06 0.027-0.113 0.024-0.054 0.065-0.093 0.041-0.04 0.096-0.062 0.054-0.023 0.116-0.023h0.324q0.063 0 0.117 0.024 0.055 0.023 0.097 0.065 0.041 0.04 0.065 0.096 0.024 0.055 0.024 0.119v0.279h-0.305v-0.279zm1.314 0.624q0-0.063 0.023-0.117 0.024-0.055 0.065-0.097 0.041-0.041 0.097-0.065 0.055-0.024 0.117-0.024h0.787v-0.319h-0.996v-0.305h0.996q0.063 0 0.119 0.024 0.055 0.023 0.096 0.065 0.041 0.04 0.065 0.096 0.024 0.055 0.024 0.119v1.345h-0.305v-0.279q-4e-3 0.057-0.031 0.108-0.026 0.051-0.068 0.089-0.04 0.037-0.093 0.058-0.052 0.021-0.111 0.021h-0.483q-0.062 0-0.117-0.023-0.055-0.024-0.097-0.065-0.04-0.041-0.065-0.097-0.023-0.055-0.023-0.119zm0.303 0.415h0.787v-0.415h-0.787zm1.505-1.345h0.403v-0.508h0.305v0.508h0.542v0.305h-0.542v1.04h0.542v0.305h-0.542q-0.062 0-0.117-0.023-0.055-0.024-0.097-0.065-0.041-0.041-0.066-0.097-0.023-0.055-0.023-0.119v-1.04h-0.403zm2.08 0v1.651h-0.299v-1.649zm-0.314-0.634h0.336v0.317h-0.336zm2.272 1.981q0 0.063-0.024 0.119-0.023 0.055-0.065 0.097-0.04 0.04-0.096 0.065-0.054 0.023-0.117 0.023h-0.82q-0.062 0-0.117-0.023-0.055-0.024-0.097-0.065-0.04-0.041-0.065-0.097-0.023-0.055-0.023-0.119v-1.04q0-0.063 0.023-0.119 0.024-0.055 0.065-0.096t0.097-0.065q0.055-0.024 0.117-0.024h0.82q0.063 0 0.117 0.024 0.055 0.023 0.096 0.065 0.041 0.04 0.065 0.096 0.024 0.055 0.024 0.119zm-1.123-1.04v1.04h0.82v-1.04zm3.092 1.345h-0.305v-1.345h-0.851v1.345h-0.303v-1.651h0.303v0.291q3e-3 -0.06 0.027-0.113 0.024-0.054 0.065-0.093 0.041-0.04 0.096-0.062 0.054-0.023 0.116-0.023h0.545q0.063 0 0.119 0.024 0.055 0.023 0.096 0.065 0.041 0.04 0.065 0.096 0.024 0.055 0.024 0.119z" fill="#fff"/>
</svg>
